{
  "accessors": [
    {
      "bufferView": 1,
      "componentType": 5126,
      "count": 65532,
      "max": [
        84.69384765625,
        10.552413940429688,
        24.12254524230957
      ],
      "min": [
        -10.350135803222656,
        -40.302143096923828,
        -45.396949768066406
      ],
      "type": "VEC3"
    },
    {
      "bufferView": 1,
      "byteOffset": 786384,
      "componentType": 5126,
      "count": 65532,
      "max": [
        0.99995839595794678,
        0.99999099969863892,
        0.99997889995574951
      ],
      "min": [
        -0.9999346137046814,
        -0.99998992681503296,
        -0.99999529123306274
      ],
      "type": "VEC3"
    },
    {
      "bufferView": 2,
      "componentType": 5126,
      "count": 65532,
      "max": [
        0.99607843160629272,
        0.88235294818878174,
        0.78431373834609985,
        1
      ],
      "min": [
        0.11372549086809158,
        0.066666670143604279,
        0.039215687662363052,
        1
      ],
      "type": "VEC4"
    },
    {
      "bufferView": 0,
      "componentType": 5125,
      "count": 354867,
      "max": [
        65531
      ],
      "min": [
        0
      ],
      "type": "SCALAR"
    },
    {
      "bufferView": 1,
      "byteOffset": 1572768,
      "componentType": 5126,
      "count": 65532,
      "max": [
        84.165962219238281,
        31.319482803344727,
        24.037563323974609
      ],
      "min": [
        -99.093162536621094,
        -23.718362808227539,
        -48.144851684570312
      ],
      "type": "VEC3"
    },
    {
      "bufferView": 1,
      "byteOffset": 2359152,
      "componentType": 5126,
      "count": 65532,
      "max": [
        0.99994742870330811,
        0.99998414516448975,
        0.99999445676803589
      ],
      "min": [
        -0.9999537467956543,
        -0.99995541572570801,
        -0.99999880790710449
      ],
      "type": "VEC3"
    },
    {
      "bufferView": 2,
      "byteOffset": 1048512,
      "componentType": 5126,
      "count": 65532,
      "max": [
        0.7921568751335144,
        0.68235296010971069,
        0.60392159223556519,
        1
      ],
      "min": [
        0.066666670143604279,
        0.039215687662363052,
        0.023529412224888802,
        1
      ],
      "type": "VEC4"
    },
    {
      "bufferView": 0,
      "byteOffset": 1419468,
      "componentType": 5125,
      "count": 305244,
      "max": [
        65531
      ],
      "min": [
        0
      ],
      "type": "SCALAR"
    },
    {
      "bufferView": 1,
      "byteOffset": 3145536,
      "componentType": 5126,
      "count": 65532,
      "max": [
        82.961174011230469,
        31.319482803344727,
        18.701259613037109
      ],
      "min": [
        -98.968894958496094,
        -3.9360735416412354,
        -47.622665405273438
      ],
      "type": "VEC3"
    },
    {
      "bufferView": 1,
      "byteOffset": 3931920,
      "componentType": 5126,
      "count": 65532,
      "max": [
        0.99999094009399414,
        0.99997556209564209,
        0.99999511241912842
      ],
      "min": [
        -0.99996209144592285,
        -0.99999916553497314,
        -0.99998730421066284
      ],
      "type": "VEC3"
    },
    {
      "bufferView": 2,
      "byteOffset": 2097024,
      "componentType": 5126,
      "count": 65532,
      "max": [
        0.73725491762161255,
        0.63137257099151611,
        0.57647061347961426,
        1
      ],
      "min": [
        0.066666670143604279,
        0.035294119268655777,
        0.031372550874948502,
        1
      ],
      "type": "VEC4"
    },
    {
      "bufferView": 0,
      "byteOffset": 2640444,
      "componentType": 5125,
      "count": 290100,
      "max": [
        65531
      ],
      "min": [
        0
      ],
      "type": "SCALAR"
    },
    {
      "bufferView": 1,
      "byteOffset": 4718304,
      "componentType": 5126,
      "count": 58685,
      "max": [
        83.329818725585938,
        31.289112091064453,
        16.865793228149414
      ],
      "min": [
        -98.795936584472656,
        11.165494918823242,
        -44.729515075683594
      ],
      "type": "VEC3"
    },
    {
      "bufferView": 1,
      "byteOffset": 5422524,
      "componentType": 5126,
      "count": 58685,
      "max": [
        0.99996542930603027,
        0.99999141693115234,
        0.99999445676803589
      ],
      "min": [
        -0.99997097253799438,
        -0.99998593330383301,
        -0.9999924898147583
      ],
      "type": "VEC3"
    },
    {
      "bufferView": 2,
      "byteOffset": 3145536,
      "componentType": 5126,
      "count": 58685,
      "max": [
        0.62745100259780884,
        0.55294120311737061,
        0.51372551918029785,
        1
      ],
      "min": [
        0.050980392843484879,
        0.023529412224888802,
        0.015686275437474251,
        1
      ],
      "type": "VEC4"
    },
    {
      "bufferView": 0,
      "byteOffset": 3800844,
      "componentType": 5125,
      "count": 254121,
      "max": [
        58684
      ],
      "min": [
        0
      ],
      "type": "SCALAR"
    }
  ],
  "asset": {
    "extras": {
      "author": "University of Dundee Museum Collections (https://sketchfab.com/uod_museums)",
      "license": "CC0-1.0 (http://creativecommons.org/publicdomain/zero/1.0/)",
      "source": "https://sketchfab.com/3d-models/penguin-skull-0f4893dbf99e4b3b865a0ec186c61d7a",
      "title": "Penguin skull"
    },
    "generator": "Sketchfab-7.80.0",
    "version": "2.0"
  },
  "bufferViews": [
    {
      "buffer": 0,
      "byteLength": 4817328,
      "byteOffset": 0,
      "name": "floatBufferViews",
      "target": 34963
    },
    {
      "buffer": 0,
      "byteLength": 6126744,
      "byteOffset": 4817328,
      "byteStride": 12,
      "name": "floatBufferViews",
      "target": 34962
    },
    {
      "buffer": 0,
      "byteLength": 4084496,
      "byteOffset": 10944072,
      "byteStride": 16,
      "name": "floatBufferViews",
      "target": 34962
    }
  ],
  "buffers": [
    {
      "byteLength": 15028568,
      "uri": "scene.bin"
    }
  ],
  "materials": [
    {
      "doubleSided": true,
      "emissiveFactor": [
        0,
        0,
        0
      ],
      "name": "material_0",
      "pbrMetallicRoughness": {
        "baseColorFactor": [
          1,
          1,
          1,
          1
        ],
        "metallicFactor": 0,
        "roughnessFactor": 0.59999999999999998
      }
    }
  ],
  "meshes": [
    {
      "primitives": [
        {
          "attributes": {
            "COLOR_0": 2,
            "NORMAL": 1,
            "POSITION": 0
          },
          "indices": 3,
          "material": 0,
          "mode": 4
        }
      ]
    },
    {
      "primitives": [
        {
          "attributes": {
            "COLOR_0": 6,
            "NORMAL": 5,
            "POSITION": 4
          },
          "indices": 7,
          "material": 0,
          "mode": 4
        }
      ]
    },
    {
      "primitives": [
        {
          "attributes": {
            "COLOR_0": 10,
            "NORMAL": 9,
            "POSITION": 8
          },
          "indices": 11,
          "material": 0,
          "mode": 4
        }
      ]
    },
    {
      "primitives": [
        {
          "attributes": {
            "COLOR_0": 14,
            "NORMAL": 13,
            "POSITION": 12
          },
          "indices": 15,
          "material": 0,
          "mode": 4
        }
      ]
    }
  ],
  "nodes": [
    {
      "children": [
        1
      ],
      "name": "RootNode (gltf orientation matrix)",
      "rotation": [
        -0.70710678118654746,
        -0,
        -0,
        0.70710678118654757
      ]
    },
    {
      "children": [
        2
      ],
      "matrix": [
        0.99111920595169067,
        0.13130059838294983,
        -0.021043682470917702,
        0,
        -0.036772456020116806,
        0.11854421347379684,
        -0.99226760864257812,
        0,
        -0.12779071927070618,
        0.98422932624816895,
        0.12231969088315964,
        0,
        -1.7640218734741211,
        8.8082561492919922,
        -15.150130271911621,
        1
      ],
      "name": "RootNode (model correction matrix)"
    },
    {
      "children": [
        3,
        4,
        5,
        6
      ],
      "name": "SubTool-0-11416231.OBJ"
    },
    {
      "mesh": 0,
      "name": ""
    },
    {
      "mesh": 1,
      "name": ""
    },
    {
      "mesh": 2,
      "name": ""
    },
    {
      "mesh": 3,
      "name": ""
    }
  ],
  "scene": 0,
  "scenes": [
    {
      "name": "OSG_Scene",
      "nodes": [
        0
      ]
    }
  ]
}

